<svg xmlns:xlink="http://www.w3.org/1999/xlink" xmlns="http://www.w3.org/2000/svg" width="424" viewBox="0 0 424 424" fill="none" class="scribble-row-1-svg" height="424" ><path d="M422.873 184.957V185.105C421.858 189.991 421.223 195.067 418.558 199.529C415.386 204.457 411.283 208.497 407.159 212.6C402.061 217.57 395.864 221.123 389.858 224.761C386.135 226.707 382.159 228.23 378.416 230.197C368.687 235.421 358.006 238.107 347.769 241.935C343.391 243.817 338.569 244.092 334.106 245.721C328.354 247.582 322.326 248.47 316.383 249.591C312.11 250.395 307.923 251.453 303.629 252.024C299.547 252.531 295.55 253.61 291.447 253.927C287.323 253.927 283.304 254.752 279.18 255.175C276.875 255.386 274.527 255.471 272.243 255.725C271.312 255.831 270.487 256.042 270.107 256.38C269.303 256.952 270.445 258.136 271.058 258.644C273.406 260.568 275.627 262.704 277.869 264.777C286.244 272.158 293.054 281.063 299.146 290.39C302.339 295.402 305.681 300.372 307.479 306.146C309.953 311.772 312.47 317.419 313.972 323.447C314.966 328.1 315.579 332.817 315.896 337.575C316.129 341.403 315.135 345.189 314.945 348.975C314.839 350.604 314.796 352.275 314.691 353.903C314.585 356.23 313.951 358.472 313.168 360.65C311.962 364.774 311.138 369.131 309.171 373.023C303.291 386.178 294.81 398.149 282.818 406.186C276.663 411.516 269.43 415.111 261.921 417.924C256.571 419.933 250.945 421.647 245.234 422.133C241.808 422.323 238.487 422.535 235.167 422.598C232.375 422.704 229.52 423.212 226.728 422.958C222.667 422.704 218.67 421.329 214.609 420.822C212.325 420.526 210.041 420.145 207.841 419.426C202.088 417.438 196.272 415.344 190.688 412.954C188.552 411.875 186.67 410.226 184.47 409.062C180.431 406.842 176.074 405.15 172.605 402.041C164.208 394.68 156.531 386.453 149.7 377.549C145.596 371.817 142.487 365.345 140.161 358.683C139.23 355.68 138.173 352.74 137.031 349.842C133.583 340.325 132.801 330.236 131.807 320.275C131.489 313.528 130.601 306.739 130.834 300.013C130.918 297.475 131.109 294.937 131.193 292.378C131.489 289.797 130.749 286.392 127.619 288.55C126.392 289.48 125.504 290.961 124.341 292.145C122.797 293.753 120.978 295.022 119.307 296.502C112.201 302.826 104.714 308.769 97.2265 314.585C93.8848 317.06 90.0777 318.963 86.7149 321.417C84.198 323.13 82.0196 325.329 79.3547 326.831C74.9555 328.967 71.3811 332.499 66.9608 334.635C64.4016 335.926 62.3078 338.019 59.8332 339.479C56.9568 341.129 53.8901 342.44 50.8022 343.667C46.1492 345.528 41.2001 346.31 36.3567 347.431C34.1994 347.981 31.8941 348.256 29.7368 347.495C19.9232 344.555 13.7262 335.418 16.4969 325.181C17.2583 321.565 17.7024 317.8 19.0349 314.353C20.3673 310.757 22.2708 307.394 24.0263 304.01C27.1776 297.877 30.2021 291.511 35.2781 286.646C36.6528 285.335 38.0064 284.002 39.0216 282.353C41.0732 278.673 43.8438 275.521 46.8471 272.603C50.2311 268.88 54.1862 265.835 58.0989 262.747C60.2985 260.991 61.9482 258.665 64.0632 256.825C68.8854 253.039 74.0884 249.782 78.9106 246.017C80.095 245.129 84.8749 241.639 80.9833 241.279C79.4393 241.279 77.9376 241.914 76.2879 242.041C69.5834 242.125 62.9 242.612 56.1743 242.273C51.5847 242.147 46.9529 241.639 42.4479 241.089C35.1512 240.729 27.8544 240.455 21.0864 237.219C16.4546 234.913 11.3151 233.708 7.0217 230.726C2.2841 227.384 -1.3537 221.102 0.549795 215.286C2.3687 211.141 4.88555 207.164 8.65025 204.711C11.6324 203.04 14.826 201.771 17.6601 199.825C22.8207 196.864 28.6581 195.722 34.1148 193.565C40.0791 191.535 46.4664 191.006 52.6634 189.948C55.4975 189.589 58.2047 188.616 60.9965 188.214C66.7704 187.664 72.6078 187.981 78.3606 187.368C80.666 187.157 82.9714 186.924 85.2979 186.945C93.208 187.22 101.139 187.854 108.922 188.447C110.361 188.552 111.841 188.7 113.3 188.785C115.267 188.891 115.521 188.108 114.464 186.564C111.101 181.763 107.23 177.11 103.677 172.33C102.852 171.188 102.133 169.983 101.435 168.756C98.4743 163.32 94.4135 158.583 91.1987 153.317C86.9264 145.999 83.2675 138.342 79.2913 130.855C76.9859 125.568 74.3633 120.323 72.2694 114.993C69.9852 108.605 68.547 101.901 67.1723 95.1752C66.1571 90.5433 66.3686 85.7211 66.7916 81.0681C66.9185 77.9379 68.1663 74.9769 70.8947 73.1369C75.59 69.774 80.7717 71.8679 85.1286 74.6808C90.8391 78.0014 95.8305 82.5486 100.314 87.392C104.798 92.4891 109.768 96.9095 114.125 102.049C117.086 105.75 119.645 109.79 122.564 113.533C127.788 120.999 132.737 128.55 137.475 136.206C138.744 138.406 139.442 140.859 140.753 143.059C142.064 145.343 143.693 147.521 145.047 149.89C146.379 152.301 147.14 151.561 147.585 149.277C148.092 146.781 148.283 144.095 148.811 141.515C149.594 137.348 150.672 133.266 151.582 129.121C153.633 119.392 155.029 109.451 158.477 100.061C159.513 96.9518 160.698 93.885 161.713 90.776C162.622 87.9419 163.299 85.002 164.462 82.2948C165.224 80.4971 165.816 78.657 166.345 76.7747C168.185 70.3874 171.336 64.5077 173.768 58.353C175.397 53.975 178.104 50.1468 180.557 46.2341C181.277 44.9439 181.89 43.548 182.524 42.2156C184.639 37.7529 187.622 33.8613 190.265 29.7371C191.407 27.9605 192.592 26.205 193.924 24.5765C196.949 20.8118 200.46 17.4912 203.759 13.9803C205.113 12.5633 206.508 11.2097 208.074 10.0253C211.415 7.44498 215.243 5.58378 218.966 3.48993C222.371 1.35378 226.263 0.000183203 230.302 0.000183203C235.547 -0.0844168 241.152 0.867334 244.98 4.61088C248.724 8.22753 250.67 13.7688 252.277 18.7179C253.927 24.0477 254.667 29.6948 254.498 35.2784C254.244 42.8289 254.117 50.3372 252.573 57.7185C251.05 65.9459 250.416 74.4905 247.878 82.464C245.869 88.3649 244.642 94.4772 243.14 100.505C242.083 104.502 240.75 108.415 239.566 112.37C238.36 116.325 237.536 120.386 236.161 124.299C233.75 131.109 232.1 138.194 229.372 144.878C227.955 148.452 227.087 151.899 226.284 155.749C226.051 156.679 225.945 158.118 226.601 158.223C228.103 158.329 230.281 156.785 231.846 156.32C238.339 153.591 244.959 151.202 251.643 149.023C257.755 146.908 263.74 144.412 270.085 143.122C272.962 142.509 275.859 141.917 278.715 141.219C284.742 139.675 290.643 137.539 296.861 136.862C299.315 136.566 301.726 135.952 304.179 135.635C307.69 135.276 311.243 135.17 314.797 134.895C320.486 134.345 326.112 133.541 331.843 133.859C340.959 134.155 350.223 133.287 359.169 135.614C368.116 137.919 377.379 139.294 385.966 142.847C390.006 144.497 393.601 147.077 397.599 148.854C404.43 151.646 409.485 157.398 414.561 162.58C415.936 164.061 417.353 165.52 418.453 167.233C420.568 170.533 421.329 174.424 422.281 178.252C422.831 180.431 423.275 182.694 422.936 184.936L422.873 184.957Z" fill="#F5693C"></path><path d="M178.762 358.542C178.762 358.542 154.691 333.896 129.624 364.317C147.745 335.024 111.732 335.577 105.625 337.683C112.186 333.631 120.845 308.467 97.6438 303.025" stroke="#F0EBE6" stroke-width="3px" stroke-linecap="round" stroke-linejoin="round" fill="none"></path></svg>