<svg xmlns:xlink="http://www.w3.org/1999/xlink"  xmlns="http://www.w3.org/2000/svg" width="100%" viewBox="0 0 371 423" fill="none" class="scribble-row-3-svg"><path d="M370.881 312.326C370.254 319.194 365.807 326.511 359.3 329.572C354.242 331.513 348.69 332.573 343.408 333.917C328.022 337.217 312.233 334.425 296.863 332.334C282.119 330.543 267.927 325.749 253.064 324.704C248.721 324.241 244.826 327.676 245.871 332.155C246.214 333.783 247.229 335.351 248.318 336.694C252.586 342.353 257.959 346.743 263.137 351.462C274.463 362.422 283.969 374.964 294.46 386.656C300.713 395.047 305.667 408.113 299.683 417.639C297.131 420.805 292.535 422.074 288.193 422.746C269.778 424.687 252.318 416.131 235.5 410.143C227.546 407.486 220.233 403.618 212.966 399.467C163.929 372.65 119.832 337.949 79.2709 299.634C68.5562 289.092 57.9758 278.117 48.5296 266.351C44.1572 260.573 40.7398 254.047 36.6807 248.045C33.5618 243.356 29.4282 239.399 25.9064 235.024C24.6976 233.352 23.8022 231.456 22.8472 229.634C20.6535 225.199 17.2809 221.661 14.9231 217.36C9.80447 208.789 6.6408 199.099 3.47713 189.826C1.52223 184.272 -0.283454 178.493 0.0597739 172.535C0.134389 162.695 -1.25345 151.093 12.5652 152.378C22.8919 154.692 31.8905 166.055 38.8297 173.551C41.9336 176.597 44.9182 179.404 47.485 183.077C50.4696 186.541 53.1856 190.394 56.006 193.918C58.2146 196.531 61.0947 198.561 63.2586 201.339C65.8253 204.624 67.8847 208.386 70.8991 211.358C75.9431 216.882 80.2558 222.751 85.3744 228.126C90.8362 234.995 97.074 241.132 103.998 246.552C106.908 249.269 109.52 252.36 112.654 254.913C117.235 258.691 122.264 261.916 126.413 266.217C130.218 270.547 135.232 273.354 140.052 276.385C144.604 279.237 148.543 282.94 153.363 285.24C155.497 286.3 157.676 287.3 159.78 288.42C168.212 293.079 178.18 298.156 188.104 295.662C191.074 294.677 193.357 292.601 193.835 289.809C194.342 286.763 191.656 284.165 189.462 281.477C187.089 278.401 183.926 276.131 180.568 274.235C165.779 265.605 152.573 254.555 139.097 243.939C119.996 229.44 101.984 213.612 86.1355 195.59C62.393 169.116 41.6202 139.566 27.9657 106.597C21.3101 90.8739 18.609 73.9115 17.2958 56.9789C16.8183 50.3343 20.3699 36.1642 28.9954 44.3617C34.0245 50.8719 36.054 59.0992 40.8293 65.8633C44.4556 71.5523 47.7387 77.958 52.7976 82.4823C55.6329 84.4234 57.9161 81.8402 58.2892 78.6598C58.722 72.702 57.3491 66.5352 57.0058 60.5775C55.4389 42.7192 56.3343 21.2325 67.0788 6.22612C72.287 -0.43342 82.5092 -1.2248 89.9856 1.73168C97.9097 7.36092 105.297 14.5132 109.475 23.3378C111.311 26.8766 114.191 29.863 116.235 33.357C119.115 37.8216 120.996 42.9581 123.353 47.6317C128.606 56.083 133.904 64.7136 140.425 72.3885C144.141 76.3901 146.947 80.9592 150.304 85.2297C156.527 92.6806 162.496 100.415 170.003 106.761C172.793 109.12 175.554 111.48 178.121 114.078C183.254 119.244 187.97 124.858 193.282 129.846C197.162 133.34 201.744 135.923 205.072 139.999C211.19 146.704 217.487 153.049 221.576 161.083C223.054 165.069 224.039 169.31 226.143 173.043C229.441 179.419 227.262 186.989 223.024 192.365C220.412 195.441 216.532 197.307 213.19 199.562C210.026 201.353 206.265 201.115 202.684 201.368C199.431 201.548 196.192 201.831 192.924 201.831C181.657 201.548 170.838 197.337 160.855 192.424C155.826 189.946 150.409 188.094 145.812 184.749C136.993 178.657 128.621 171.804 120.04 165.413C116.638 163.143 109.415 156.006 106.64 161.979C104.953 168.728 114.862 179.508 118.847 184.705C144.559 213.911 180.673 232.441 217.413 243.774C233.052 247.328 248.721 251.449 264.51 254.182C279.955 256.451 295.176 259.841 310.413 263.23C320.859 266.321 330.41 271.219 340.572 274.862C349.556 278.834 357.868 284.583 364.673 291.765C369.567 297.275 371.493 304.815 370.94 312.087L370.911 312.371L370.881 312.326Z" fill="#F0BEFA"></path></svg>