<svg xmlns:xlink="http://www.w3.org/1999/xlink"  xmlns="http://www.w3.org/2000/svg" width="100%" viewBox="0 0 385 374" fill="none" class="scribble-row-2-svg"><path d="M383.508 222.063C381.36 231.331 379.595 240.889 375.118 249.43C366.584 266.73 353.808 281.558 341.343 296.187C335.992 302.129 330.733 308.162 324.764 313.505C316.557 320.683 307.512 326.752 298.777 333.167C287.422 341.199 275.047 347.85 262.308 353.556C257.231 355.737 252.427 358.426 247.149 360.007C222.272 367.966 196.777 373.618 170.48 372.982C150.08 372.219 130.517 364.659 113.484 353.701C102.729 346.051 94.5576 335.493 88.4794 323.608C78.6524 303.31 77.9063 280.359 80.4904 258.334C81.6551 247.94 85.0764 237.909 86.6778 227.442C88.0245 220.3 87.4967 212.922 79.5441 210.451C72.3013 207.58 64.7308 207.834 57.4334 206.017C52.8838 204.836 48.2433 204 43.6574 203.037C20.109 198.276 4.58595 178.068 0.818932 155.081C-5.44123 111.304 24.9497 73.1245 56.1959 46.0663C67.1512 36.2171 79.7989 28.294 92.3556 20.5709C117.378 4.85205 147.751 -3.39807 177.104 1.32667C197.05 5.52442 213.428 14.138 216.34 36.0899C216.995 40.7419 216.067 45.612 215.357 50.1914C214.611 55.5158 214.01 60.8766 212.245 65.9829C207.95 78.8124 202.891 91.3511 200.107 104.544C197.432 117.301 206.021 122.171 216.776 125.496C225.53 128.695 234.683 128.64 243.819 128.658C262.563 130.639 281.835 127.259 300.397 130.857C314.537 132.765 328.531 135.836 341.343 142.269C350.26 146.194 359.14 150.628 365.874 157.806C375.628 168.401 382.561 181.939 383.708 196.349C384.818 204.727 385.965 213.395 383.581 221.699L383.49 222.045L383.508 222.063Z" fill="#82A0FF"></path></svg>